<?xml version="1.0" standalone="no"?>
<!DOCTYPE svg PUBLIC "-//W3C//DTD SVG 20010904//EN"
 "http://www.w3.org/TR/2001/REC-SVG-20010904/DTD/svg10.dtd">
<svg version="1.0" xmlns="http://www.w3.org/2000/svg"
 width="192.000000pt" height="192.000000pt" viewBox="0 0 192.000000 192.000000"
 preserveAspectRatio="xMidYMid meet">
<metadata>
Created by potrace 1.11, written by Peter Selinger 2001-2013
</metadata>
<g transform="translate(0.000000,192.000000) scale(0.100000,-0.100000)"
fill="#000000" stroke="none">
<path d="M1032 1633 c-6 -10 -10 -21 -10 -26 -1 -24 -55 -237 -61 -237 -3 0
-12 14 -19 30 -17 36 -39 39 -54 5 -15 -34 -24 -24 -32 37 -13 95 -27 149 -39
145 -7 -2 -25 -41 -42 -87 -29 -82 -31 -84 -65 -87 -80 -8 -76 -33 6 -36 47
-2 50 0 66 33 9 19 17 46 18 60 1 39 17 4 24 -55 9 -71 25 -115 42 -115 8 0
14 6 14 13 0 6 9 22 18 35 l18 24 27 -41 c15 -23 30 -41 32 -41 7 0 23 43 30
78 3 15 13 61 24 102 19 81 19 80 37 -25 11 -66 13 -68 109 -72 79 -3 86 -2
83 14 -3 15 -15 19 -63 21 -98 5 -87 -5 -101 87 -12 81 -31 149 -41 152 -7 3
-16 -4 -21 -14z"/>
<path d="M475 1425 c-41 -40 -28 -93 28 -114 18 -7 46 -43 92 -121 l66 -111
-42 -47 c-22 -26 -49 -63 -59 -82 -12 -23 -26 -36 -40 -37 -39 -3 -94 -39
-123 -80 -56 -79 -28 -198 59 -249 22 -13 48 -24 57 -24 10 0 27 -20 41 -47
76 -150 230 -244 401 -244 86 -1 97 1 164 25 99 36 185 109 237 203 22 38 42
63 52 63 18 0 76 32 97 54 54 53 62 157 18 220 -27 38 -77 71 -118 78 -11 2
-35 26 -53 53 -19 28 -47 64 -64 81 l-29 31 60 103 c34 56 61 106 61 111 0 5
11 11 24 15 51 12 73 60 50 105 -23 46 -72 52 -110 14 -19 -19 -23 -31 -18
-52 3 -16 6 -32 6 -38 2 -18 -127 -215 -137 -211 -91 41 -142 57 -202 60 -80
4 -173 -13 -233 -44 -23 -12 -43 -20 -45 -18 -21 22 -128 207 -127 218 6 56 2
75 -20 92 -32 25 -65 22 -93 -7z m628 -378 c74 -34 137 -93 173 -164 26 -52
29 -68 29 -153 0 -82 -4 -102 -26 -150 -130 -271 -511 -271 -638 -1 -22 47
-26 70 -26 146 0 76 4 99 26 145 65 139 184 211 335 206 50 -2 87 -10 127 -29z"/>
<path d="M798 848 c-28 -23 -29 -48 -4 -73 28 -28 58 -24 76 10 11 20 10 28
-4 50 -18 27 -43 32 -68 13z"/>
<path d="M1055 836 c-20 -29 -6 -71 25 -79 29 -7 73 34 64 60 -16 46 -65 56
-89 19z"/>
</g>
</svg>
